<?xml version="1.0" standalone="no"?>
<!DOCTYPE svg PUBLIC "-//W3C//DTD SVG 1.0//EN" "http://www.w3.org/TR/2001/REC-SVG-20010904/DTD/svg10.dtd">
<svg xmlns="http://www.w3.org/2000/svg" xmlns:xlink="http://www.w3.org/1999/xlink" id="body_1" width="56" height="56">

<g transform="matrix(2.3333335 0 0 2.3333335 0 0)">
	<g>
        <path d="M0 0L24 0L24 24L0 24z" stroke="none" fill="none" />
	</g>
	<g>
        <path d="M12 2C 6.47 2 2 6.47 2 12C 2 17.53 6.47 22 12 22C 17.53 22 22 17.53 22 12C 22 6.47 17.53 2 12 2zM12 20C 7.58 20 4 16.42 4 12C 4 7.58 7.58 4 12 4C 16.42 4 20 7.58 20 12C 20 16.42 16.42 20 12 20z" stroke="none" fill="#000000" fill-rule="nonzero" />
	</g>
</g>
</svg>