<?xml version="1.0" encoding="utf-8"?>
<svg viewBox="388.038 113.233 46.667 46.667" width="46.667" height="46.667" xmlns="http://www.w3.org/2000/svg">
  <path d="M12 2C 6.47 2 2 6.47 2 12C 2 17.53 6.47 22 12 22C 17.53 22 22 17.53 22 12C 22 6.47 17.53 2 12 2zM12 20C 7.58 20 4 16.42 4 12C 4 7.58 7.58 4 12 4C 16.42 4 20 7.58 20 12C 20 16.42 16.42 20 12 20z" stroke="none" fill-rule="nonzero" style="fill: rgb(225, 102, 178);" transform="matrix(2.333333, 0, 0, 2.333333, 383.371277, 108.566345)"/>
</svg>